# xmcd
#
# Track frame offsets:
#	150
#	18560
#	49075
#	73582
#	100767
#
# Disc length: 1734 seconds
#
# Revision: 1
# Processed by: cddbd v1.5.1PL0 Copyright (c) Steve Scherf et al.
# Submitted via: CDex 1.50Beta5
#
DISCID=3b06c405
DTITLE=吉田拓郎 - TRAVELLIN’MAN LIVE AT NHK STUDIO 101
DYEAR=1993
DGENRE=
TTITLE0=ロンサム・トラベリン・マン
TTITLE1=AKIRA
TTITLE2=今度はいったい何回目の引越しになるんだろう
TTITLE3=海を泳ぐ男
TTITLE4=吉田町の唄
EXTD=
EXTT0=
EXTT1=
EXTT2=
EXTT3=
EXTT4=
PLAYORDER=
